<svg width="57" height="60" viewBox="0 0 57 60" fill="none" xmlns="http://www.w3.org/2000/svg">
<rect x="0.72168" width="56.1884" height="59.1413" rx="5" fill="url(#paint0_linear_29_794)"/>
<g clip-path="url(#clip0_29_794)">
<path d="M34.3977 28.5405H21.9867V32.6775H34.3977V28.5405ZM40.1507 18.7798L33.8224 12.445C33.5315 12.1541 33.1372 11.9925 32.7235 11.9925H32.3292V20.2665H40.6032V19.8722C40.6032 19.465 40.4416 19.0707 40.1507 18.7798ZM30.2607 20.7836V11.9925H17.3326C16.4729 11.9925 15.7812 12.6842 15.7812 13.5439V43.5371C15.7812 44.3968 16.4729 45.0885 17.3326 45.0885H39.0518C39.9116 45.0885 40.6032 44.3968 40.6032 43.5371V22.335H31.8121C30.9588 22.335 30.2607 21.6369 30.2607 20.7836ZM19.9182 16.6466C19.9182 16.3609 20.1497 16.1295 20.4354 16.1295H25.6066C25.8923 16.1295 26.1237 16.3609 26.1237 16.6466V17.6809C26.1237 17.9666 25.8923 18.198 25.6066 18.198H20.4354C20.1497 18.198 19.9182 17.9666 19.9182 17.6809V16.6466ZM19.9182 20.7836C19.9182 20.4979 20.1497 20.2665 20.4354 20.2665H25.6066C25.8923 20.2665 26.1237 20.4979 26.1237 20.7836V21.8179C26.1237 22.1036 25.8923 22.335 25.6066 22.335H20.4354C20.1497 22.335 19.9182 22.1036 19.9182 21.8179V20.7836ZM36.4662 40.4343C36.4662 40.7201 36.2348 40.9515 35.9491 40.9515H30.7778C30.4921 40.9515 30.2607 40.7201 30.2607 40.4343V39.4001C30.2607 39.1144 30.4921 38.883 30.7778 38.883H35.9491C36.2348 38.883 36.4662 39.1144 36.4662 39.4001V40.4343ZM36.4662 27.5062V33.7117C36.4662 34.2832 36.0034 34.746 35.432 34.746H20.9525C20.3811 34.746 19.9182 34.2832 19.9182 33.7117V27.5062C19.9182 26.9348 20.3811 26.472 20.9525 26.472H35.432C36.0034 26.472 36.4662 26.9348 36.4662 27.5062Z" fill="white"/>
</g>
<defs>
<linearGradient id="paint0_linear_29_794" x1="28.8159" y1="0" x2="28.8159" y2="59.1413" gradientUnits="userSpaceOnUse">
<stop stop-color="#B39CEA"/>
<stop offset="1" stop-color="#462692"/>
</linearGradient>
<clipPath id="clip0_29_794">
<rect width="24.822" height="33.0959" fill="white" transform="translate(15.7812 11.9925)"/>
</clipPath>
</defs>
</svg>
