<svg width="57" height="60" viewBox="0 0 57 60" fill="none" xmlns="http://www.w3.org/2000/svg">
<rect x="0.696533" width="56.1884" height="59.1413" rx="5" fill="url(#paint0_linear_29_757)"/>
<g clip-path="url(#clip0_29_757)">
<path d="M34.3721 28.5405H21.9611V32.6775H34.3721V28.5405ZM40.1251 18.7797L33.7968 12.445C33.5059 12.1541 33.1116 11.9925 32.6979 11.9925H32.3036V20.2665H40.5776V19.8722C40.5776 19.4649 40.416 19.0706 40.1251 18.7797ZM30.2351 20.7836V11.9925H17.307C16.4473 11.9925 15.7556 12.6841 15.7556 13.5439V43.5371C15.7556 44.3968 16.4473 45.0884 17.307 45.0884H39.0262C39.8859 45.0884 40.5776 44.3968 40.5776 43.5371V22.335H31.7865C30.9332 22.335 30.2351 21.6369 30.2351 20.7836ZM19.8926 16.6466C19.8926 16.3609 20.124 16.1295 20.4097 16.1295H25.581C25.8667 16.1295 26.0981 16.3609 26.0981 16.6466V17.6809C26.0981 17.9666 25.8667 18.198 25.581 18.198H20.4097C20.124 18.198 19.8926 17.9666 19.8926 17.6809V16.6466ZM19.8926 20.7836C19.8926 20.4979 20.124 20.2665 20.4097 20.2665H25.581C25.8667 20.2665 26.0981 20.4979 26.0981 20.7836V21.8179C26.0981 22.1036 25.8667 22.335 25.581 22.335H20.4097C20.124 22.335 19.8926 22.1036 19.8926 21.8179V20.7836ZM36.4406 40.4343C36.4406 40.72 36.2092 40.9514 35.9235 40.9514H30.7522C30.4665 40.9514 30.2351 40.72 30.2351 40.4343V39.4001C30.2351 39.1144 30.4665 38.8829 30.7522 38.8829H35.9235C36.2092 38.8829 36.4406 39.1144 36.4406 39.4001V40.4343ZM36.4406 27.5062V33.7117C36.4406 34.2831 35.9778 34.746 35.4063 34.746H20.9269C20.3554 34.746 19.8926 34.2831 19.8926 33.7117V27.5062C19.8926 26.9348 20.3554 26.472 20.9269 26.472H35.4063C35.9778 26.472 36.4406 26.9348 36.4406 27.5062Z" fill="white"/>
</g>
<defs>
<linearGradient id="paint0_linear_29_757" x1="28.7907" y1="0" x2="28.7907" y2="59.1413" gradientUnits="userSpaceOnUse">
<stop stop-color="#73A9EB"/>
<stop offset="1" stop-color="#005AC9"/>
</linearGradient>
<clipPath id="clip0_29_757">
<rect width="24.822" height="33.0959" fill="white" transform="translate(15.7556 11.9925)"/>
</clipPath>
</defs>
</svg>
