<svg width="62" height="62" viewBox="0 0 62 62" fill="none" xmlns="http://www.w3.org/2000/svg">
<rect width="62" height="62" rx="31" fill="white"/>
<path d="M16.5534 13.2857L16.3612 14.5883L13.2858 36.1943V47.2381H22.512V44.1515H40.9643V47.2381H50.1905V36.1943L47.1151 14.5883L46.9229 13.2857H16.5534ZM19.2443 16.3723H22.4166L21.0696 34.8918H16.601L19.2443 16.3723ZM25.492 16.3723H30.2004V34.8918H24.145L25.492 16.3723ZM33.2758 16.3723H37.9858L39.3313 34.8918H33.2758V16.3723ZM41.0612 16.3723H44.2319L46.8753 34.8918H42.4052L41.0612 16.3723ZM16.3612 37.9784H47.1151V44.1515H44.0397V41.0649H19.4366V44.1515H16.3612V37.9784Z" fill="#006499"/>
</svg>
