<svg width="472" height="352" viewBox="0 0 472 352" fill="none" xmlns="http://www.w3.org/2000/svg">
<path d="M435.875 25.2418L398.674 33.2646L415.896 67.2127L422.025 54.3379C449.568 67.4606 461.305 100.552 448.194 128.107C435.084 155.662 401.995 167.403 374.452 154.28C346.909 141.158 335.173 108.068 348.287 80.5135L332.068 72.7881C314.696 109.296 330.241 153.122 366.725 170.502C403.209 187.882 447.025 172.332 464.4 135.832C481.774 99.3332 466.227 55.4985 429.743 38.1166L435.875 25.2418Z" fill="url(#paint0_linear_172_7385)"/>
<path d="M198.108 352C157.526 351.979 118.198 337.923 86.7886 312.215C55.3787 286.507 33.8179 250.726 25.7589 210.935C17.7 171.144 23.6383 129.789 42.568 93.8763C61.4976 57.9639 92.2546 29.7022 129.628 13.8791C172.614 -4.29067 221.054 -4.63307 264.292 12.9273C307.53 30.4876 342.024 64.5122 360.186 107.516C378.348 150.52 378.69 198.98 361.137 242.237C343.584 285.493 309.574 320.002 266.589 338.172C244.924 347.343 221.633 352.046 198.108 352V352ZM198.108 37.4337C121.724 37.4337 59.5711 99.6037 59.5711 176.03C59.5711 252.456 121.717 314.626 198.108 314.626C274.5 314.626 336.646 252.456 336.646 176.03C336.646 99.6037 274.493 37.4337 198.108 37.4337Z" fill="url(#paint1_linear_172_7385)"/>
<path d="M143.495 114.806H100.409V119.219H143.495V114.806Z" fill="#E0E0E0"/>
<path d="M186.663 148.04H155.554V152.453H186.663V148.04Z" fill="#E0E0E0"/>
<path d="M212.151 148.04H191.508V152.453H212.151V148.04Z" fill="#1487E3"/>
<path d="M254.325 281.464H233.682V285.877H254.325V281.464Z" fill="#1487E3"/>
<path d="M121.541 231.613H100.898V236.025H121.541V231.613Z" fill="#1487E3"/>
<path d="M266.071 148.04H216.229V152.453H266.071V148.04Z" fill="#E0E0E0"/>
<path d="M132.924 214.875H100.898V219.288H132.924V214.875Z" fill="#E0E0E0"/>
<path d="M218.979 248.231H186.953V252.643H218.979V248.231Z" fill="#E0E0E0"/>
<path d="M165.092 248.231H145.541V252.643H165.092V248.231Z" fill="#E0E0E0"/>
<path d="M139.634 248.231H100.898V252.643H139.634V248.231Z" fill="#1487E3"/>
<path d="M122.264 264.846H100.898V269.259H122.264V264.846Z" fill="#E0E0E0"/>
<path d="M182.464 114.806H151.878V119.219H182.464V114.806Z" fill="#78C2FF"/>
<path d="M182.464 164.656H151.878V169.068H182.464V164.656Z" fill="#1487E3"/>
<path d="M149.652 181.274H136.584V185.687H149.652V181.274Z" fill="#E0E0E0"/>
<path d="M152.869 198.135H123.515V202.548H152.869V198.135Z" fill="#78C2FF"/>
<path d="M197.829 198.135H157.306V202.548H197.829V198.135Z" fill="#1487E3"/>
<path d="M131.484 181.396H100.898V185.808H131.484V181.396Z" fill="#1487E3"/>
<path d="M119.047 198.135H100.898V202.548H119.047V198.135Z" fill="#1487E3"/>
<path d="M172.935 181.396H155.813V185.808H172.935V181.396Z" fill="#FF8761"/>
<path d="M118.534 281.464H101.412V285.877H118.534V281.464Z" fill="#FF8761"/>
<path d="M131.363 148.04H100.776V152.453H131.363V148.04Z" fill="#78C2FF"/>
<path d="M158.41 231.613H127.824V236.025H158.41V231.613Z" fill="#78C2FF"/>
<path d="M158.789 264.846H128.202V269.259H158.789V264.846Z" fill="#78C2FF"/>
<path d="M213.125 264.846H182.538V269.259H213.125V264.846Z" fill="#78C2FF"/>
<path d="M144.378 164.656H100.776V169.068H144.378V164.656Z" fill="#78C2FF"/>
<path d="M226.717 281.464H196.131V285.877H226.717V281.464Z" fill="#78C2FF"/>
<path d="M229.666 114.806H190.697V119.219H229.666V114.806Z" fill="#1487E3"/>
<path d="M163.965 281.464H124.997V285.877H163.965V281.464Z" fill="#1487E3"/>
<path d="M299.847 281.464H260.878V285.877H299.847V281.464Z" fill="#1487E3"/>
<path d="M293.848 248.231H254.88V252.643H293.848V248.231Z" fill="#1487E3"/>
<path d="M282.972 164.656H244.004V169.068H282.972V164.656Z" fill="#1487E3"/>
<path d="M179.614 248.231H171.214V252.643H179.614V248.231Z" fill="#FF8761"/>
<path d="M297.457 114.806H258.488V119.219H297.457V114.806Z" fill="#FF8761"/>
<path d="M236.872 164.656H214.023V169.068H236.872V164.656Z" fill="#FF8761"/>
<path d="M218.979 231.858H196.131V236.271H218.979V231.858Z" fill="#FF8761"/>
<path d="M251.136 114.806H236.872V119.219H251.136V114.806Z" fill="#E0E0E0"/>
<path d="M204.961 164.656H190.697V169.068H204.961V164.656Z" fill="#E0E0E0"/>
<path d="M122.724 131.424H100.409V135.837H122.724V131.424Z" fill="#1487E3"/>
<path d="M177.567 214.997H159.949V219.409H177.567V214.997Z" fill="#1487E3"/>
<path d="M135.408 131.424H128.202V135.837H135.408V131.424Z" fill="#1487E3"/>
<path d="M278.537 264.846H218.981V269.259H278.537V264.846Z" fill="#E0E0E0"/>
<path d="M148.055 131.424H140.702V135.837H148.055V131.424Z" fill="#FF8761"/>
<path d="M270.621 131.424H251.136V135.837H270.621V131.424Z" fill="#1487E3"/>
<path d="M290.106 148.04H270.621V152.453H290.106V148.04Z" fill="#FF8761"/>
<path d="M246.614 248.231H227.129V252.643H246.614V248.231Z" fill="#FF8761"/>
<path d="M189.916 281.464H170.43V285.877H189.916V281.464Z" fill="#FF8761"/>
<path d="M245.979 131.424H204.522V135.837H245.979V131.424Z" fill="#1487E3"/>
<path d="M190.152 231.858H165.932V236.271H190.152V231.858Z" fill="#1487E3"/>
<path d="M176.485 264.846H164.375V269.259H176.485V264.846Z" fill="#1487E3"/>
<path d="M198.64 131.424H184.376V135.837H198.64V131.424Z" fill="#78C2FF"/>
<path d="M150.627 148.04H136.364V152.453H150.627V148.04Z" fill="#FF8761"/>
<path d="M153.47 214.997H139.206V219.409H153.47V214.997Z" fill="#FF8761"/>
<path d="M178.934 131.424H154.083V135.837H178.934V131.424Z" fill="#1487E3"/>
<path d="M94.949 298.682C94.9432 298.68 94.9367 298.68 94.9308 298.682C95.0103 298.714 95.0216 298.718 94.949 298.682Z" fill="#323657"/>
<path d="M271.702 78.8796H278.782L276.615 74.3836H269.535L271.702 78.8796Z" fill="url(#paint2_linear_172_7385)"/>
<path d="M268.389 78.8796H270.076L267.909 74.3836H266.221L268.389 78.8796Z" fill="url(#paint3_linear_172_7385)"/>
<path d="M243.925 73.5251H272.597L271.646 71.276H242.974L243.925 73.5251Z" fill="url(#paint4_linear_172_7385)"/>
<path d="M389.346 191.6H411.897V190.018H389.346V191.6Z" fill="#FFD770"/>
<path d="M389.346 199.645H411.897V192.997H389.346V199.645Z" fill="#FFD770"/>
<path d="M378.752 202.875H392.056V201.881H378.752V202.875Z" fill="#FFD770"/>
<path d="M378.752 206.003H392.056V203.312H378.752V206.003Z" fill="#FFD770"/>
<path d="M385.496 198.494H386.49V179.865H385.496V198.494Z" fill="#FFD770"/>
<path d="M97.1587 56.1543H114.921V52.9362H97.1587V56.1543Z" fill="white"/>
<path d="M97.1587 52.0392H114.921V51.433H97.1587V52.0392Z" fill="white"/>
<path d="M273.288 116.361L296.357 93.2846H391.128V92.1059H295.869L272.457 115.53L273.288 116.361Z" fill="#FF8761"/>
<path d="M126.682 169.107L127.513 168.275L83.431 124.172H0V125.351H82.9444L126.682 169.107Z" fill="#78C2FF"/>
<path d="M214.521 116.057L215.352 115.223L178.146 78.0029H125.819V79.1793H177.659L214.521 116.057Z" fill="#1487E3"/>
<path d="M348.08 61.6757H339.714V87.0985H348.08V61.6757Z" fill="#609AE8"/>
<path d="M376.346 22.9363H311.45C309.421 22.9363 307.776 24.582 307.776 26.612V70.2483C307.776 72.2783 309.421 73.9239 311.45 73.9239H376.346C378.375 73.9239 380.02 72.2783 380.02 70.2483V26.612C380.02 24.582 378.375 22.9363 376.346 22.9363Z" fill="#9CC7FF"/>
<path d="M377.191 25.8457H310.605V65.9327H377.191V25.8457Z" fill="white"/>
<path d="M325.078 88.0585H362.718V86.1407H325.078V88.0585Z" fill="#9CC7FF"/>
<path d="M352.257 62.7619H373.657V38.0107H352.257V62.7619Z" fill="#D7D7E6"/>
<path d="M326.901 41.0981H348.95V38.0129H326.901V41.0981Z" fill="#D7D7E6"/>
<path d="M326.901 47.4329H348.95V44.3478H326.901V47.4329Z" fill="#D7D7E6"/>
<path d="M326.901 62.7641H348.95V50.0358H326.901V62.7641Z" fill="#D7D7E6"/>
<path d="M314.428 62.7619H323.783V37.3075H314.428V62.7619Z" fill="#D7D7E6"/>
<path d="M314.644 35.2883L373.875 35.2883V28.9309L314.644 28.9309V35.2883Z" fill="#D7D7E6"/>
<path d="M136.828 72.4726H166.475C168.417 72.4726 169.991 70.8976 169.991 68.9547V24.115C169.991 22.1721 168.417 20.5971 166.475 20.5971L136.828 20.5971C134.886 20.5971 133.311 22.1721 133.311 24.115V68.9547C133.311 70.8976 134.886 72.4726 136.828 72.4726Z" fill="#9CC7FF"/>
<path d="M135.339 65.5699H167.964V22.9972L135.339 22.9972V65.5699Z" fill="white"/>
<path d="M137.528 31.7254L165.923 31.7254V26.0576L137.528 26.0576V31.7254Z" fill="#D7D7E6"/>
<path d="M154.238 61.7027H165.925V33.9226H154.238V61.7027Z" fill="#D7D7E6"/>
<path d="M137.528 37.1408H152.065V33.9226H137.528V37.1408Z" fill="#D7D7E6"/>
<path d="M137.528 42.7004H152.065V39.4823H137.528V42.7004Z" fill="#D7D7E6"/>
<path d="M137.528 48.2622H152.065V45.0441H137.528V48.2622Z" fill="#D7D7E6"/>
<path d="M137.528 61.7004H152.065V50.606H137.528V61.7004Z" fill="#D7D7E6"/>
<path d="M70.3973 117.076H13.2141L13.2141 80.8109C13.2141 80.4724 13.2807 80.1371 13.4102 79.8243C13.5397 79.5115 13.7296 79.2273 13.9689 78.9879C14.2082 78.7485 14.4923 78.5586 14.8049 78.4291C15.1176 78.2995 15.4527 78.2328 15.7911 78.2328H67.8271C68.5094 78.2346 69.1631 78.507 69.6449 78.9903C70.1268 79.4736 70.3973 80.1283 70.3973 80.8109V117.076Z" fill="#609AE8"/>
<path d="M14.8089 115.009H68.7957V80.3016H14.8089L14.8089 115.009Z" fill="white"/>
<path d="M70.8996 119.931L12.7049 119.931C12.1074 119.931 11.5345 119.694 11.112 119.271C10.6896 118.848 10.4522 118.275 10.4522 117.678V117.076L73.15 117.076V117.678C73.15 118.275 72.9129 118.848 72.491 119.27C72.069 119.693 71.4966 119.93 70.8996 119.931V119.931Z" fill="#9CC7FF"/>
<path d="M17.0682 87.6506H66.4844V82.8257H17.0682V87.6506Z" fill="#D7D7E6"/>
<path d="M49.5423 112.485H66.4844V90.3752H49.5423V112.485Z" fill="#D7D7E6"/>
<path d="M30.4264 112.485H47.3685V90.3752H30.4264L30.4264 112.485Z" fill="#D7D7E6"/>
<path d="M17.0682 93.5347H27.3989V90.3752H17.0682V93.5347Z" fill="#D7D7E6"/>
<path d="M17.0682 98.4183H27.3989V95.2587H17.0682V98.4183Z" fill="#D7D7E6"/>
<path d="M17.0682 112.487H27.3989V100.144H17.0682V112.487Z" fill="#D7D7E6"/>
<path d="M34.871 172.717L22.1458 165.368V170.216H3.22815V175.221H22.1458V180.068L34.871 172.717Z" fill="#2A6993"/>
<path d="M3.22815 156.597L15.9533 163.946V159.101H34.871V154.093H15.9533V149.246L3.22815 156.597Z" fill="#2A6993"/>
<path d="M220.811 67.9767L211.275 62.4689V66.1017H197.097V69.854H211.275V73.4867L220.811 67.9767Z" fill="#2A6993"/>
<path d="M197.097 55.8952L206.632 61.403V57.7702H220.811V54.0179H206.632V50.3874L197.097 55.8952Z" fill="#2A6993"/>
<path d="M349.639 155.412C348.407 155.329 347.233 154.856 346.289 154.06C345.797 153.657 345.4 153.15 345.124 152.577C344.849 152.003 344.703 151.376 344.697 150.74C344.523 148.261 343.753 145.717 343.12 143.968C341.208 142.444 339.824 140.357 339.164 138.002C338.504 135.647 338.602 133.144 339.443 130.848C340.283 128.552 341.825 126.579 343.85 125.208C345.874 123.837 348.278 123.138 350.722 123.21C353.165 123.282 355.524 124.122 357.464 125.61C359.404 127.098 360.826 129.159 361.531 131.5C362.235 133.842 362.184 136.346 361.387 138.658C360.589 140.97 359.084 142.972 357.086 144.38C356.217 146.744 355.694 148.908 355.534 150.814C355.505 153.379 353.056 155.445 350.087 155.427C349.932 155.427 349.785 155.421 349.639 155.412ZM351.182 124.188C348.891 124.014 346.604 124.584 344.662 125.812C342.719 127.04 341.224 128.861 340.397 131.006C339.57 133.151 339.456 135.505 340.072 137.72C340.687 139.935 341.999 141.893 343.814 143.303L343.92 143.387L343.967 143.515C344.643 145.318 345.465 148.047 345.65 150.695V150.726C345.655 151.227 345.771 151.721 345.989 152.172C346.207 152.623 346.522 153.021 346.911 153.336C347.804 154.074 348.929 154.473 350.087 154.463C352.547 154.479 354.561 152.825 354.575 150.776V150.74C354.743 148.712 355.302 146.404 356.235 143.896L356.287 143.754L356.413 143.668C358.24 142.416 359.633 140.628 360.401 138.55C361.169 136.472 361.272 134.207 360.698 132.067C360.124 129.928 358.899 128.019 357.194 126.605C355.49 125.192 353.388 124.342 351.18 124.175L351.182 124.188Z" fill="white"/>
<path d="M347.481 151.436L345.956 138.74L348.6 140.928L350.243 139.107L351.662 140.815L354.133 138.719L352.63 151.439L351.684 151.326L352.903 141.011L351.542 142.165L350.213 140.563L348.697 142.246L347.186 140.995L348.427 151.324L347.481 151.436Z" fill="white"/>
<path d="M354.228 154.259L345.967 154.204L345.945 157.535L354.206 157.59L354.228 154.259Z" fill="white"/>
<path d="M355.577 150.865L344.659 150.793L344.623 156.154L355.542 156.226L355.577 150.865Z" fill="white"/>
<path d="M295.605 191.753H257.107V219.668V225.548L262.984 219.668H295.605V191.753Z" fill="#78C2FF"/>
<defs>
<linearGradient id="paint0_linear_172_7385" x1="485.608" y1="52.2601" x2="357.291" y2="137.768" gradientUnits="userSpaceOnUse">
<stop stop-color="#40D5E6"/>
<stop offset="1" stop-color="#4B69E0"/>
</linearGradient>
<linearGradient id="paint1_linear_172_7385" x1="22.2043" y1="176.021" x2="374.013" y2="176.021" gradientUnits="userSpaceOnUse">
<stop stop-color="#40D5E6"/>
<stop offset="1" stop-color="#5577FF"/>
</linearGradient>
<linearGradient id="paint2_linear_172_7385" x1="269.535" y1="76.6327" x2="278.782" y2="76.6327" gradientUnits="userSpaceOnUse">
<stop stop-color="#FFAE70"/>
<stop offset="1" stop-color="#FFD970"/>
</linearGradient>
<linearGradient id="paint3_linear_172_7385" x1="6387.42" y1="2291.88" x2="6453.37" y2="2291.88" gradientUnits="userSpaceOnUse">
<stop stop-color="#FFAE70"/>
<stop offset="1" stop-color="#FFD970"/>
</linearGradient>
<linearGradient id="paint4_linear_172_7385" x1="44231.5" y1="1138.33" x2="48126.8" y2="1138.33" gradientUnits="userSpaceOnUse">
<stop stop-color="#FFAE70"/>
<stop offset="1" stop-color="#FFD970"/>
</linearGradient>
</defs>
</svg>
